<svg version="1.1" id="Layer_1" xmlns="http://www.w3.org/2000/svg" xmlns:xlink="http://www.w3.org/1999/xlink" x="0px" y="0px"
	 width="100%" viewBox="0 0 500 500" enable-background="new 0 0 500 500" xml:space="preserve">
<path fill="#1C2120" opacity="1.000000" stroke="none" 
	d="
M462.000000,501.000000 
	C308.000031,501.000000 154.500076,501.000000 1.000082,501.000000 
	C1.000055,334.333405 1.000055,167.666824 1.000027,1.000172 
	C167.666550,1.000115 334.333099,1.000115 500.999756,1.000057 
	C500.999817,167.666519 500.999817,334.333038 500.999908,500.999756 
	C488.166656,501.000000 475.333344,501.000000 462.000000,501.000000 
M224.499451,290.313446 
	C233.263321,290.313446 242.027191,290.313446 250.665863,290.313446 
	C250.665863,285.994049 250.665863,282.256836 250.665863,278.605896 
	C207.788605,278.605896 165.262543,278.605896 122.535896,278.605896 
	C122.535896,282.556915 122.535896,286.158295 122.535896,290.313416 
	C156.310532,290.313416 189.904968,290.313416 224.499451,290.313446 
M226.296021,252.186127 
	C225.260651,250.584854 224.225281,248.983597 223.206711,247.408310 
	C230.894669,241.691376 233.507095,235.492264 231.588089,227.966278 
	C229.769897,220.835632 223.624908,215.730011 214.938873,215.234390 
	C206.676727,214.762955 198.366577,215.132889 189.705841,215.132889 
	C189.705841,228.982101 189.705841,242.607849 189.705841,256.233612 
	C189.705841,258.043457 189.705841,259.853302 189.705841,261.714417 
	C194.315201,261.714417 198.545319,261.714417 203.233948,261.714417 
	C203.233948,257.543945 203.233948,253.657135 203.233948,250.037704 
	C208.454041,248.523117 211.605774,250.420181 213.757462,254.662582 
	C214.652481,256.427216 215.739700,258.203339 217.134567,259.571472 
	C218.278076,260.693024 219.955795,261.753357 221.486526,261.899445 
	C225.036026,262.238159 228.639862,262.007202 232.962753,262.007202 
	C230.578598,258.455719 228.661209,255.599503 226.296021,252.186127 
M170.555527,221.953781 
	C156.034698,208.517303 132.312027,212.882141 126.143730,230.125305 
	C122.178833,241.208969 126.421768,253.204681 136.410004,259.150452 
	C147.565353,265.790985 162.906784,263.701111 171.148727,254.418167 
	C179.032425,245.538712 178.989044,232.671829 170.555527,221.953781 
M330.155396,261.997925 
	C334.095367,261.997925 338.035339,261.997925 342.542023,261.997925 
	C341.734772,259.954041 341.191406,258.430939 340.540955,256.954987 
	C335.655792,245.870544 330.751831,234.794388 325.849121,223.717697 
	C321.682953,214.305206 321.675598,214.248993 311.304169,215.073242 
	C310.120941,215.167267 308.424408,216.075638 307.976898,217.064133 
	C301.284088,231.846985 294.761414,246.706879 288.059265,261.863831 
	C292.884521,261.863831 297.177063,261.863831 301.595520,261.863831 
	C302.913818,258.877777 304.223480,255.911224 305.529846,252.952103 
	C308.193268,252.952103 310.555359,253.223007 312.834442,252.902863 
	C320.617371,251.809540 327.110168,252.832199 330.155396,261.997925 
M255.081299,250.478516 
	C255.081299,254.244339 255.081299,258.010162 255.081299,261.650757 
	C259.927765,261.650757 264.145874,261.650757 268.782288,261.650757 
	C268.782288,249.547241 268.782288,237.804489 268.782288,225.634918 
	C273.636017,225.634918 278.065887,225.634918 282.583069,225.634918 
	C282.583069,221.831100 282.583069,218.475952 282.583069,215.287323 
	C268.480072,215.287323 254.749557,215.287323 241.051453,215.287323 
	C241.051453,218.873169 241.051453,222.151245 241.051453,225.779755 
	C245.768921,225.779755 250.206238,225.779755 255.081299,225.779755 
	C255.081299,233.914673 255.081299,241.700333 255.081299,250.478516 
z"/>
<path fill="#F8F8F8" opacity="1.000000" stroke="none" 
	d="
M223.999435,290.313416 
	C189.904968,290.313416 156.310532,290.313416 122.535896,290.313416 
	C122.535896,286.158295 122.535896,282.556915 122.535896,278.605896 
	C165.262543,278.605896 207.788605,278.605896 250.665863,278.605896 
	C250.665863,282.256836 250.665863,285.994049 250.665863,290.313446 
	C242.027191,290.313446 233.263321,290.313446 223.999435,290.313416 
z"/>
<path fill="#FBFCFC" opacity="1.000000" stroke="none" 
	d="
M226.519913,252.464722 
	C228.661209,255.599503 230.578598,258.455719 232.962753,262.007202 
	C228.639862,262.007202 225.036026,262.238159 221.486526,261.899445 
	C219.955795,261.753357 218.278076,260.693024 217.134567,259.571472 
	C215.739700,258.203339 214.652481,256.427216 213.757462,254.662582 
	C211.605774,250.420181 208.454041,248.523117 203.233948,250.037704 
	C203.233948,253.657135 203.233948,257.543945 203.233948,261.714417 
	C198.545319,261.714417 194.315201,261.714417 189.705841,261.714417 
	C189.705841,259.853302 189.705841,258.043457 189.705841,256.233612 
	C189.705841,242.607849 189.705841,228.982101 189.705841,215.132889 
	C198.366577,215.132889 206.676727,214.762955 214.938873,215.234390 
	C223.624908,215.730011 229.769897,220.835632 231.588089,227.966278 
	C233.507095,235.492264 230.894669,241.691376 223.206711,247.408310 
	C224.225281,248.983597 225.260651,250.584854 226.519913,252.464722 
M218.103363,229.970520 
	C214.582230,223.089676 208.482925,226.443954 203.307526,225.608521 
	C203.307526,230.481644 203.307526,234.719467 203.307526,239.110718 
	C205.924698,239.110718 208.242584,239.173904 210.555939,239.098389 
	C216.567398,238.902206 218.346252,236.966110 218.103363,229.970520 
z"/>
<path fill="#FAFBFA" opacity="1.000000" stroke="none" 
	d="
M170.798294,222.216156 
	C178.989044,232.671829 179.032425,245.538712 171.148727,254.418167 
	C162.906784,263.701111 147.565353,265.790985 136.410004,259.150452 
	C126.421768,253.204681 122.178833,241.208969 126.143730,230.125305 
	C132.312027,212.882141 156.034698,208.517303 170.798294,222.216156 
M158.036942,227.287262 
	C152.974960,224.233032 147.878601,224.135361 143.195129,227.808517 
	C138.549866,231.451721 137.447952,236.483475 138.739365,242.119537 
	C139.936966,247.346085 143.253372,250.482468 148.399948,251.656876 
	C153.700134,252.866318 159.254730,250.231537 161.860870,245.420959 
	C164.918991,239.776077 163.665512,232.938232 158.036942,227.287262 
z"/>
<path fill="#FBFBFB" opacity="1.000000" stroke="none" 
	d="
M329.728271,261.940491 
	C327.110168,252.832199 320.617371,251.809540 312.834442,252.902863 
	C310.555359,253.223007 308.193268,252.952103 305.529846,252.952103 
	C304.223480,255.911224 302.913818,258.877777 301.595520,261.863831 
	C297.177063,261.863831 292.884521,261.863831 288.059265,261.863831 
	C294.761414,246.706879 301.284088,231.846985 307.976898,217.064133 
	C308.424408,216.075638 310.120941,215.167267 311.304169,215.073242 
	C321.675598,214.248993 321.682953,214.305206 325.849121,223.717697 
	C330.751831,234.794388 335.655792,245.870544 340.540955,256.954987 
	C341.191406,258.430939 341.734772,259.954041 342.542023,261.997925 
	C338.035339,261.997925 334.095367,261.997925 329.728271,261.940491 
M319.603699,238.941788 
	C318.266510,235.693741 316.929352,232.445694 315.216034,228.283997 
	C313.095154,233.623260 311.320465,238.091019 309.466949,242.757202 
	C313.669189,242.757202 317.188385,242.757202 320.928406,242.757202 
	C320.517334,241.519455 320.212494,240.601562 319.603699,238.941788 
z"/>
<path fill="#F7F7F7" opacity="1.000000" stroke="none" 
	d="
M255.081299,249.982254 
	C255.081299,241.700333 255.081299,233.914673 255.081299,225.779755 
	C250.206238,225.779755 245.768921,225.779755 241.051453,225.779755 
	C241.051453,222.151245 241.051453,218.873169 241.051453,215.287323 
	C254.749557,215.287323 268.480072,215.287323 282.583069,215.287323 
	C282.583069,218.475952 282.583069,221.831100 282.583069,225.634918 
	C278.065887,225.634918 273.636017,225.634918 268.782288,225.634918 
	C268.782288,237.804489 268.782288,249.547241 268.782288,261.650757 
	C264.145874,261.650757 259.927765,261.650757 255.081299,261.650757 
	C255.081299,258.010162 255.081299,254.244339 255.081299,249.982254 
z"/>
<path fill="#1C2120" opacity="1.000000" stroke="none" 
	d="
M218.198120,230.385132 
	C218.346252,236.966110 216.567398,238.902206 210.555939,239.098389 
	C208.242584,239.173904 205.924698,239.110718 203.307526,239.110718 
	C203.307526,234.719467 203.307526,230.481644 203.307526,225.608521 
	C208.482925,226.443954 214.582230,223.089676 218.198120,230.385132 
z"/>
<path fill="#212625" opacity="1.000000" stroke="none" 
	d="
M158.331421,227.530396 
	C163.665512,232.938232 164.918991,239.776077 161.860870,245.420959 
	C159.254730,250.231537 153.700134,252.866318 148.399948,251.656876 
	C143.253372,250.482468 139.936966,247.346085 138.739365,242.119537 
	C137.447952,236.483475 138.549866,231.451721 143.195129,227.808517 
	C147.878601,224.135361 152.974960,224.233032 158.331421,227.530396 
z"/>
<path fill="#212625" opacity="1.000000" stroke="none" 
	d="
M319.755676,239.312714 
	C320.212494,240.601562 320.517334,241.519455 320.928406,242.757202 
	C317.188385,242.757202 313.669189,242.757202 309.466949,242.757202 
	C311.320465,238.091019 313.095154,233.623260 315.216034,228.283997 
	C316.929352,232.445694 318.266510,235.693741 319.755676,239.312714 
z"/>
</svg>